<svg xmlns="http://www.w3.org/2000/svg" viewBox="0 0 46 42"><title>ethernet1</title><path d="M44,0H2A2,2,0,0,0,0,2V40a2,2,0,0,0,2,2H44a2,2,0,0,0,2-2V2A2,2,0,0,0,44,0ZM40,30.06H32V34.5H28.79v3.66H17.33V34.5H14.15V30.06h-8V7.57H40Z"/><rect x="12" y="9.57" width="2" height="10"/><rect x="16" y="9.57" width="2" height="10"/><rect x="20" y="9.57" width="2" height="10"/><rect x="24" y="9.57" width="2" height="10"/><rect x="28" y="9.57" width="2" height="10"/><rect x="32" y="9.57" width="2" height="10"/><path d="M-163.77-97.43" style="fill:#fff;stroke:currentColor;stroke-miterlimit:10;stroke-width:2px"/><path d="M-220.77,5.57"/></svg>
