<svg xmlns="http://www.w3.org/2000/svg" viewBox="0 0 64 34.16"><circle cx="56.3" cy="28.83" r="0.93" fill="#000"/><path d="M4.37,13.87" transform="translate(0 0)" fill="#fff" stroke="#000" stroke-miterlimit="10" stroke-width="0.43"/><path d="M43.19,13.87" transform="translate(0 0)" fill="#fff" stroke="#000" stroke-miterlimit="10" stroke-width="0.43"/><rect x="7.16" y="25.99" width="0.8" height="4.8" fill="#000"/><polygon points="13.81 30.99 15.15 30.99 15.15 30.46 16.48 30.46 16.48 27.26 12.48 27.26 12.48 30.46 13.81 30.46 13.81 30.99" fill="#000"/><polygon points="18.7 30.99 20.04 30.99 20.04 30.46 21.37 30.46 21.37 27.26 17.37 27.26 17.37 30.46 18.7 30.46 18.7 30.99" fill="#000"/><polygon points="23.59 30.99 24.93 30.99 24.93 30.46 26.26 30.46 26.26 27.26 22.26 27.26 22.26 30.46 23.59 30.46 23.59 30.99" fill="#000"/><polygon points="28.48 30.99 29.82 30.99 29.82 30.46 31.15 30.46 31.15 27.26 27.15 27.26 27.15 30.46 28.48 30.46 28.48 30.99" fill="#000"/><polygon points="33.37 30.99 34.7 30.99 34.7 30.46 36.04 30.46 36.04 27.26 32.04 27.26 32.04 30.46 33.37 30.46 33.37 30.99" fill="#000"/><path d="M0,23.5V34.16H64V23.5Zm8.59,8.29h-3V25h3Zm28.56,0H11.37V25.87H37.15Zm4.18-1.35a.58.58,0,1,1,.58-.57A.58.58,0,0,1,41.33,30.44Zm0-1.78a.57.57,0,0,1-.57-.57.58.58,0,1,1,1.15,0A.57.57,0,0,1,41.33,28.66ZM43,30.44a.58.58,0,0,1,0-1.15.58.58,0,1,1,0,1.15Zm0-1.78a.56.56,0,0,1-.57-.57.57.57,0,0,1,.57-.58.58.58,0,0,1,.58.58A.57.57,0,0,1,43,28.66Zm1.66,1.78a.58.58,0,0,1,0-1.15.58.58,0,1,1,0,1.15Zm0-1.78a.56.56,0,0,1-.57-.57.57.57,0,0,1,.57-.58.58.58,0,0,1,.58.58A.57.57,0,0,1,44.65,28.66Zm1.66,1.78a.58.58,0,0,1,0-1.15.58.58,0,1,1,0,1.15Zm0-1.78a.56.56,0,0,1-.57-.57.57.57,0,0,1,.57-.58.58.58,0,0,1,.58.58A.57.57,0,0,1,46.31,28.66ZM48,30.44a.58.58,0,1,1,.58-.57A.58.58,0,0,1,48,30.44Zm0-1.78a.57.57,0,0,1-.58-.57.58.58,0,0,1,1.16,0A.57.57,0,0,1,48,28.66Zm1.66,1.78a.58.58,0,1,1,.58-.57A.58.58,0,0,1,49.63,30.44Zm0-1.78a.57.57,0,0,1-.58-.57.58.58,0,1,1,1.16,0A.57.57,0,0,1,49.63,28.66Zm3.11.47a.3.3,0,1,1,.3-.3A.31.31,0,0,1,52.74,29.13Zm5.33,2.66H54.52V27.05h3.55Z" transform="translate(0 0)" fill="#000"/><path d="M6.66,1A1,1,0,0,0,4.75,1L4.52,23H6.89Z" transform="translate(0 0)" fill="#000"/><path d="M20.59,1a1,1,0,0,0-1.92,0l-.23,22h2.37Z" transform="translate(0 0)" fill="#000"/><path d="M45.48,1a1,1,0,0,0-1.92,0l-.23,22H45.7Z" transform="translate(0 0)" fill="#000"/><path d="M59.4,1a1,1,0,0,0-1.91,0l-.23,22h2.37Z" transform="translate(0 0)" fill="#000"/></svg>
